HIERARCHY
ROOT hip
{
	OFFSET 0.000000 0.000000 0.000000 
	CHANNELS 6 Xposition Yposition Zposition Xrotation Zrotation Yrotation
	JOINT abdomen
	{
		OFFSET 0.000000 3.402643 0.000000 
		CHANNELS 3 Xrotation Zrotation Yrotation
		JOINT chest
		{
			OFFSET 0.000000 8.438565 -0.680529 
			CHANNELS 3 Xrotation Zrotation Yrotation
			JOINT neck
			{
				OFFSET 0.000000 10.207942 -0.272212 
				CHANNELS 3 Xrotation Zrotation Yrotation
				JOINT head
				{
					OFFSET 0.000000 3.130431 0.000000 
					CHANNELS 3 Xrotation Zrotation Yrotation
					End Site
					{
						OFFSET 0.000000 3.130435 0.000000 
					}
				}
			}
			JOINT lCollar
			{
				OFFSET 3.470700 6.669187 -0.816635 
				CHANNELS 3 Yrotation Zrotation Xrotation
				JOINT lShldr
				{
					OFFSET 3.198488 0.000000 0.000000 
					CHANNELS 3 Zrotation Yrotation Xrotation
					JOINT lForeArm
					{
						OFFSET 10.139888 0.000000 0.000000 
						CHANNELS 3 Yrotation Zrotation Xrotation
						JOINT lHand
						{
							OFFSET 8.370511 0.000000 0.000000 
							CHANNELS 3 Zrotation Yrotation Xrotation
							End Site
							{
								OFFSET 4.083176 0.000000 0.000000 
							}
						}
					}
				}
			}
			JOINT rCollar
			{
				OFFSET -3.470700 6.669187 -0.816635 
				CHANNELS 3 Yrotation Zrotation Xrotation
				JOINT rShldr
				{
					OFFSET -3.198488 0.000000 0.000000 
					CHANNELS 3 Zrotation Yrotation Xrotation
					JOINT rForeArm
					{
						OFFSET -10.139888 0.000000 0.000000 
						CHANNELS 3 Yrotation Zrotation Xrotation
						JOINT rHand
						{
							OFFSET -8.370511 0.000000 0.000000 
							CHANNELS 3 Zrotation Yrotation Xrotation
							End Site
							{
								OFFSET -4.083176 0.000000 0.000000 
							}
						}
					}
				}
			}
		}
	}
	JOINT lThigh
	{
		OFFSET 5.308129 -1.633274 1.361059 
		CHANNELS 3 Xrotation Zrotation Yrotation
		JOINT lShin
		{
			OFFSET -2.041588 -20.007561 0.000000 
			CHANNELS 3 Xrotation Zrotation Yrotation
			JOINT lFoot
			{
				OFFSET 0.000000 -19.190928 -1.224953 
				CHANNELS 3 Xrotation Yrotation Zrotation
				End Site
				{
					OFFSET 0.000000 -2.449906 4.627600 
				}
			}
		}
	}
	JOINT rThigh
	{
		OFFSET -5.308129 -1.633274 1.361059 
		CHANNELS 3 Xrotation Zrotation Yrotation
		JOINT rShin
		{
			OFFSET 2.041588 -20.007561 0.000000 
			CHANNELS 3 Xrotation Zrotation Yrotation
			JOINT rFoot
			{
				OFFSET 0.000000 -19.190928 -1.224953 
				CHANNELS 3 Xrotation Yrotation Zrotation
				End Site
				{
					OFFSET 0.000000 -2.449906 4.627600 
				}
			}
		}
	}
}
MOTION
Frames: 13
Frame Time: 0.016667
-2.599441 36.898888 90.373703 1.983421 -1.464844 -0.039299 26.540316 2.714656 -0.674459 21.602095 0.625000 0.048932 1.389810 9.744804 0.942447 -32.213032 -8.249108 -11.577345 0.623711 -1.260404 -0.058576 -41.620235 -28.667042 -43.993172 -9.139692 -0.189462 0.327846 13.751307 -23.458214 -19.863262 -2.048517 1.662951 -0.078326 31.839350 -55.105103 -32.558945 21.025640 4.935066 -28.913260 5.706953 -1.832891 -0.811092 -51.303562 19.168865 -11.094252 102.783951 -6.750020 -14.936557 -13.590166 -5.132269 -0.798886 -15.128807 -2.049868 -2.072058 68.438972 5.976277 6.072382 -49.260719 -2.928683 -9.042184 
-2.581048 36.400238 91.920006 2.002952 -1.464844 -0.039299 26.531195 2.675770 0.166291 20.762226 0.595703 0.048927 1.363106 9.685993 1.021094 -31.876493 -8.262105 -11.458617 0.623711 -1.260404 -0.058576 -40.441391 -27.721209 -45.507816 -9.404024 -0.626436 1.069551 13.751307 -23.458214 -19.863262 -2.048517 1.662951 -0.078326 32.046349 -54.429512 -33.148346 21.508709 5.253201 -31.908253 4.569643 -1.795845 -1.563265 -55.140190 19.080708 -10.670257 101.180771 -7.160336 -14.841096 -14.083831 -4.977859 -0.534404 -13.170951 -2.177259 -2.156347 69.647896 5.820507 6.249252 -49.418209 -2.798764 -8.733578 
-2.562639 35.901558 93.466415 2.012463 -1.455078 -0.029535 26.530867 2.646076 1.007041 19.922453 0.566406 0.058687 1.336237 9.627167 1.099747 -31.538063 -8.284650 -11.341293 0.623711 -1.260404 -0.058576 -39.304989 -26.751692 -47.004765 -9.668144 -1.072177 1.819644 13.751307 -23.458214 -19.863262 -2.048517 1.662951 -0.078326 32.234982 -53.769547 -33.721951 22.018078 5.544743 -34.908245 3.441306 -1.770441 -2.306648 -58.978424 19.022249 -10.241696 99.575829 -7.570403 -14.712613 -14.608168 -4.865042 -0.257332 -11.196752 -2.313919 -2.214939 70.827744 5.663664 6.381646 -49.597435 -2.670446 -8.377009 
-2.527664 35.365032 95.110916 2.031994 -1.455078 -0.029535 26.542227 2.605966 1.916079 18.916464 0.527344 0.048916 1.307154 9.548833 1.168775 -31.108984 -8.260667 -11.172856 0.623711 -1.260404 -0.058576 -38.154980 -25.793856 -48.505234 -9.935019 -1.484264 2.501466 13.751307 -23.458214 -19.863262 -2.048517 1.662951 -0.078326 33.546749 -52.060047 -34.233055 22.474039 5.752460 -38.105675 2.291818 -1.726872 -3.068083 -61.705513 18.886055 -9.679667 97.419243 -8.077497 -14.525799 -14.469348 -4.738058 0.079998 -8.674131 -2.420003 -2.281321 71.408630 5.477969 6.434889 -49.722191 -2.528545 -7.938539 
-2.492669 34.828491 96.755516 2.042008 -1.455078 -0.039298 26.542561 2.565242 2.825117 17.900797 0.478515 0.048908 1.278093 9.480250 1.237807 -30.681633 -8.226998 -11.004416 0.623711 -1.260404 -0.058576 -37.049770 -24.804886 -49.970963 -10.193692 -1.894792 3.192071 13.751307 -23.458214 -19.863262 -2.048517 1.662951 -0.078326 34.775955 -50.344410 -34.644093 22.951183 5.938346 -41.303036 1.140076 -1.685705 -3.831405 -64.410805 18.788357 -9.121156 95.246941 -8.565742 -14.314747 -14.333709 -4.593545 0.437043 -6.148713 -2.537694 -2.353313 71.979416 5.292524 6.474199 -49.863564 -2.395895 -7.509456 
-2.438264 34.282734 98.493401 2.061539 -1.455078 -0.039298 26.565681 2.533423 3.822391 16.748413 0.429687 0.048900 1.235418 9.392204 1.287570 -30.198725 -8.155906 -10.794541 0.623711 -1.260404 -0.058576 -35.941853 -23.827272 -51.434685 -10.467813 -2.279372 3.804516 13.751307 -23.458214 -19.863262 -2.048517 1.662951 -0.078326 37.530178 -47.455227 -35.084606 23.450569 5.977666 -44.518311 -0.006300 -1.626835 -4.597764 -66.151611 18.679771 -8.519199 92.891899 -9.086278 -14.074513 -13.960730 -4.546428 0.816747 -3.108820 -2.650332 -2.366934 71.648270 5.136837 6.392653 -49.587711 -2.238657 -6.976666 
-2.383835 33.736992 100.231377 2.081318 -1.455078 -0.049060 26.576719 2.491210 4.809474 15.596028 0.380859 0.048892 1.202585 9.313919 1.337327 -29.702301 -8.093946 -10.595733 0.623711 -1.260404 -0.058576 -34.868046 -22.817390 -52.874176 -10.734454 -2.671821 4.425362 13.751307 -23.458214 -19.863262 -2.048517 1.662951 -0.078326 40.114704 -44.549038 -35.296883 23.956736 5.981679 -47.737034 -1.155014 -1.589761 -5.357958 -67.907257 18.573708 -7.914420 90.550606 -9.609752 -13.800685 -13.573457 -4.513611 1.199526 -0.097791 -2.792314 -2.380170 71.346298 4.989732 6.322006 -49.320797 -2.086319 -6.414608 
-2.307148 33.210636 102.057968 2.101098 -1.455077 -0.058823 26.601460 2.467458 5.874611 14.345929 0.332031 0.039118 1.165970 9.216177 1.366230 -29.148706 -7.984274 -10.376231 0.623711 -1.260404 -0.058576 -33.804680 -21.813873 -54.302589 -11.010067 -3.021048 4.987811 13.751307 -23.458214 -19.863262 -2.048517 1.662951 -0.078326 43.906342 -40.609280 -35.498611 24.545540 5.787925 -50.808952 -2.291847 -1.523112 -6.104765 -68.958328 18.524195 -7.354977 88.368843 -10.116706 -13.576435 -13.154421 -4.546578 1.514398 3.469399 -2.894448 -2.313517 69.947433 4.882171 6.112535 -48.564732 -1.988149 -5.744457 
-2.230435 32.684330 103.884659 2.111112 -1.455077 -0.068585 26.633972 2.433235 6.940165 13.086170 0.273437 0.048874 1.130820 9.118400 1.404786 -28.592499 -7.883940 -10.156755 0.623711 -1.260404 -0.058576 -32.781231 -20.786535 -55.706570 -11.271118 -3.365264 5.549270 13.751307 -23.458214 -19.863262 -2.048517 1.662951 -0.078326 47.493420 -36.672787 -35.368801 25.122147 5.560946 -53.885876 -3.432745 -1.467727 -6.857046 -69.999870 18.474688 -6.811864 86.199730 -10.617755 -13.333405 -12.776199 -4.575918 1.829915 7.058906 -3.017115 -2.253680 68.558678 4.774774 5.910730 -47.795422 -1.893074 -5.083479 
-2.128621 32.206017 105.795166 2.131139 -1.455076 -0.088110 26.681087 2.417179 8.083765 11.767731 0.224609 0.039100 1.090641 9.010972 1.414425 -27.983334 -7.754725 -9.926314 0.623711 -1.260404 -0.058576 -31.781021 -19.776316 -57.090294 -11.550726 -3.695509 6.052424 13.751307 -23.458214 -19.863262 -2.048517 1.662951 -0.078326 51.700302 -31.920517 -35.080975 25.846964 5.059567 -56.659126 -4.550585 -1.408885 -7.597357 -70.635223 18.425919 -6.415074 84.711052 -11.053956 -13.149189 -12.694201 -4.691196 2.047061 11.133813 -3.103605 -2.154383 65.896149 4.726038 5.572652 -46.252949 -1.812758 -4.323106 
-2.026776 31.727793 107.705772 2.150901 -1.445311 -0.097872 26.726112 2.390576 9.226950 10.449333 0.166016 0.039091 1.050671 8.913308 1.424066 -27.370129 -7.634606 -9.706909 0.623711 -1.260404 -0.058576 -30.819080 -18.725250 -58.441292 -11.826580 -4.021211 6.553769 13.751307 -23.458214 -19.863262 -2.048517 1.662951 -0.078326 55.747082 -27.213440 -34.414791 26.545427 4.528782 -59.414333 -5.674757 -1.350012 -8.335072 -71.292114 18.387625 -6.053109 83.247261 -11.503014 -12.959291 -12.625319 -4.800344 2.288115 15.228722 -3.202132 -2.050742 63.225594 4.657414 5.205262 -44.726631 -1.712999 -3.584506 
-1.896983 31.326160 109.695488 2.170679 -1.445310 -0.107634 26.774397 2.372307 10.429083 9.101626 0.126953 0.029318 1.005882 8.805994 1.404755 -26.719221 -7.484894 -9.505626 0.623711 -1.260404 -0.058576 -29.887505 -17.690805 -59.758316 -12.104892 -4.312710 7.006942 13.751307 -23.458214 -19.863262 -2.048517 1.662951 -0.078326 59.734261 -21.904844 -33.350876 27.417418 3.710193 -61.716866 -6.756653 -1.289509 -9.042610 -71.708710 18.369354 -5.892004 82.909149 -11.826161 -12.902085 -13.251542 -5.004758 2.345255 19.752609 -3.320246 -1.958025 59.123482 4.637882 4.691951 -42.212914 -1.591107 -2.723164 
-1.767156 30.924658 111.685287 2.180671 -1.435544 -0.117395 26.834227 2.362553 11.640963 7.744167 0.078125 0.019545 0.962904 8.708403 1.393605 -26.067242 -7.334918 -9.305688 0.623711 -1.260404 -0.058576 -28.993843 -16.630938 -61.053741 -12.389108 -4.610130 7.458700 13.751307 -23.458214 -19.863262 -2.048517 1.662951 -0.078326 63.703049 -16.676752 -31.944887 28.260166 2.865067 -64.006432 -7.834494 -1.234426 -9.747863 -72.113403 18.348761 -5.712795 82.570335 -12.098447 -12.830291 -13.922691 -5.194075 2.406031 24.261925 -3.446663 -1.885058 55.031731 4.571041 4.193193 -39.675323 -1.466101 -1.873895 
